<mxfile host="app.diagrams.net" modified="2022-06-27T03:37:01.354Z" agent="5.0 (Macintosh; Intel Mac OS X 10_15_7) AppleWebKit/537.36 (KHTML, like Gecko) Chrome/103.0.0.0 Safari/537.36" etag="p_i24BpigYa7C16MNlHw" version="20.0.3" type="github">
  <diagram id="kjioRTTvPp2s22UqmnqP" name="Page-1">
    <mxGraphModel dx="2572" dy="2088" grid="1" gridSize="10" guides="1" tooltips="1" connect="1" arrows="1" fold="1" page="1" pageScale="1" pageWidth="850" pageHeight="1100" math="0" shadow="0">
      <root>
        <mxCell id="0" />
        <mxCell id="1" parent="0" />
        <mxCell id="V_cOzxLmXI86towWaT79-7" value="内网" style="rounded=0;whiteSpace=wrap;html=1;verticalAlign=top;fillColor=none;" vertex="1" parent="1">
          <mxGeometry y="-120" width="600" height="520" as="geometry" />
        </mxCell>
        <mxCell id="V_cOzxLmXI86towWaT79-31" style="edgeStyle=orthogonalEdgeStyle;rounded=0;orthogonalLoop=1;jettySize=auto;html=1;exitX=1;exitY=0.5;exitDx=0;exitDy=0;" edge="1" parent="1" source="V_cOzxLmXI86towWaT79-12" target="V_cOzxLmXI86towWaT79-4">
          <mxGeometry relative="1" as="geometry" />
        </mxCell>
        <mxCell id="V_cOzxLmXI86towWaT79-12" value="凌霄&lt;br&gt;售卖中台" style="rounded=0;whiteSpace=wrap;html=1;verticalAlign=top;fillColor=none;" vertex="1" parent="1">
          <mxGeometry x="40" y="-80" width="160" height="440" as="geometry" />
        </mxCell>
        <mxCell id="V_cOzxLmXI86towWaT79-1" value="南天门&lt;br&gt;控制台" style="rounded=0;whiteSpace=wrap;html=1;" vertex="1" parent="1">
          <mxGeometry x="60" y="280" width="120" height="60" as="geometry" />
        </mxCell>
        <mxCell id="V_cOzxLmXI86towWaT79-28" style="edgeStyle=orthogonalEdgeStyle;rounded=0;orthogonalLoop=1;jettySize=auto;html=1;exitX=0.5;exitY=1;exitDx=0;exitDy=0;entryX=0.766;entryY=0;entryDx=0;entryDy=0;entryPerimeter=0;" edge="1" parent="1" source="V_cOzxLmXI86towWaT79-2" target="V_cOzxLmXI86towWaT79-5">
          <mxGeometry relative="1" as="geometry" />
        </mxCell>
        <mxCell id="V_cOzxLmXI86towWaT79-2" value="POP&lt;br&gt;API产品与网关" style="rounded=0;whiteSpace=wrap;html=1;" vertex="1" parent="1">
          <mxGeometry x="400" y="300" width="120" height="60" as="geometry" />
        </mxCell>
        <mxCell id="V_cOzxLmXI86towWaT79-27" style="edgeStyle=orthogonalEdgeStyle;rounded=0;orthogonalLoop=1;jettySize=auto;html=1;exitX=0.5;exitY=1;exitDx=0;exitDy=0;entryX=0.5;entryY=0;entryDx=0;entryDy=0;" edge="1" parent="1" source="V_cOzxLmXI86towWaT79-4" target="V_cOzxLmXI86towWaT79-2">
          <mxGeometry relative="1" as="geometry" />
        </mxCell>
        <mxCell id="V_cOzxLmXI86towWaT79-32" value="InnerAPI" style="edgeLabel;html=1;align=center;verticalAlign=middle;resizable=0;points=[];" vertex="1" connectable="0" parent="V_cOzxLmXI86towWaT79-27">
          <mxGeometry x="0.426" y="-3" relative="1" as="geometry">
            <mxPoint as="offset" />
          </mxGeometry>
        </mxCell>
        <mxCell id="V_cOzxLmXI86towWaT79-4" value="通天塔SPI&lt;br&gt;反向代理" style="rounded=0;whiteSpace=wrap;html=1;" vertex="1" parent="1">
          <mxGeometry x="400" y="110" width="120" height="60" as="geometry" />
        </mxCell>
        <mxCell id="V_cOzxLmXI86towWaT79-19" style="edgeStyle=orthogonalEdgeStyle;rounded=0;orthogonalLoop=1;jettySize=auto;html=1;exitX=0.5;exitY=0;exitDx=0;exitDy=0;strokeWidth=1;dashed=1;dashPattern=1 1;" edge="1" parent="1" source="V_cOzxLmXI86towWaT79-5" target="V_cOzxLmXI86towWaT79-17">
          <mxGeometry relative="1" as="geometry" />
        </mxCell>
        <mxCell id="V_cOzxLmXI86towWaT79-20" value="AnyTunnelACL" style="edgeLabel;html=1;align=center;verticalAlign=middle;resizable=0;points=[];" vertex="1" connectable="0" parent="V_cOzxLmXI86towWaT79-19">
          <mxGeometry x="-0.233" y="1" relative="1" as="geometry">
            <mxPoint as="offset" />
          </mxGeometry>
        </mxCell>
        <mxCell id="V_cOzxLmXI86towWaT79-5" value="售卖区VPC" style="rounded=0;whiteSpace=wrap;html=1;verticalAlign=top;" vertex="1" parent="1">
          <mxGeometry y="440" width="600" height="160" as="geometry" />
        </mxCell>
        <mxCell id="V_cOzxLmXI86towWaT79-46" value="" style="edgeStyle=orthogonalEdgeStyle;rounded=0;orthogonalLoop=1;jettySize=auto;html=1;strokeWidth=1;" edge="1" parent="1" source="V_cOzxLmXI86towWaT79-6" target="V_cOzxLmXI86towWaT79-17">
          <mxGeometry relative="1" as="geometry" />
        </mxCell>
        <mxCell id="V_cOzxLmXI86towWaT79-6" value="宙斯&lt;br&gt;资源管控" style="rounded=0;whiteSpace=wrap;html=1;fillColor=none;" vertex="1" parent="1">
          <mxGeometry x="240" y="300" width="120" height="60" as="geometry" />
        </mxCell>
        <mxCell id="V_cOzxLmXI86towWaT79-8" value="ACK" style="rounded=0;whiteSpace=wrap;html=1;" vertex="1" parent="1">
          <mxGeometry x="40" y="500" width="120" height="60" as="geometry" />
        </mxCell>
        <mxCell id="V_cOzxLmXI86towWaT79-9" value="ECS" style="rounded=0;whiteSpace=wrap;html=1;" vertex="1" parent="1">
          <mxGeometry x="173" y="500" width="120" height="60" as="geometry" />
        </mxCell>
        <mxCell id="V_cOzxLmXI86towWaT79-10" value="Middlewares" style="rounded=0;whiteSpace=wrap;html=1;" vertex="1" parent="1">
          <mxGeometry x="307" y="500" width="120" height="60" as="geometry" />
        </mxCell>
        <mxCell id="V_cOzxLmXI86towWaT79-11" value="RDS" style="rounded=0;whiteSpace=wrap;html=1;" vertex="1" parent="1">
          <mxGeometry x="440" y="500" width="120" height="60" as="geometry" />
        </mxCell>
        <mxCell id="V_cOzxLmXI86towWaT79-13" value="OMS&lt;br&gt;计量系统" style="rounded=0;whiteSpace=wrap;html=1;" vertex="1" parent="1">
          <mxGeometry x="60" y="200" width="120" height="60" as="geometry" />
        </mxCell>
        <mxCell id="V_cOzxLmXI86towWaT79-14" value="实例域" style="rounded=0;whiteSpace=wrap;html=1;" vertex="1" parent="1">
          <mxGeometry x="60" y="120" width="120" height="60" as="geometry" />
        </mxCell>
        <mxCell id="V_cOzxLmXI86towWaT79-42" style="edgeStyle=orthogonalEdgeStyle;rounded=0;orthogonalLoop=1;jettySize=auto;html=1;exitX=0.5;exitY=1;exitDx=0;exitDy=0;entryX=0.5;entryY=0;entryDx=0;entryDy=0;strokeWidth=1;" edge="1" parent="1" source="V_cOzxLmXI86towWaT79-15" target="V_cOzxLmXI86towWaT79-14">
          <mxGeometry relative="1" as="geometry" />
        </mxCell>
        <mxCell id="V_cOzxLmXI86towWaT79-15" value="交易域" style="rounded=0;whiteSpace=wrap;html=1;" vertex="1" parent="1">
          <mxGeometry x="60" y="40" width="120" height="60" as="geometry" />
        </mxCell>
        <mxCell id="V_cOzxLmXI86towWaT79-16" value="计费域&lt;br&gt;费用中心" style="rounded=0;whiteSpace=wrap;html=1;" vertex="1" parent="1">
          <mxGeometry x="60" y="-40" width="120" height="60" as="geometry" />
        </mxCell>
        <mxCell id="V_cOzxLmXI86towWaT79-21" style="edgeStyle=orthogonalEdgeStyle;rounded=0;orthogonalLoop=1;jettySize=auto;html=1;exitX=0;exitY=0.5;exitDx=0;exitDy=0;entryX=1;entryY=0.75;entryDx=0;entryDy=0;dashed=1;dashPattern=1 1;" edge="1" parent="1" source="V_cOzxLmXI86towWaT79-17" target="V_cOzxLmXI86towWaT79-12">
          <mxGeometry relative="1" as="geometry" />
        </mxCell>
        <mxCell id="V_cOzxLmXI86towWaT79-17" value="OXS&lt;br&gt;内部资源" style="rounded=0;whiteSpace=wrap;html=1;" vertex="1" parent="1">
          <mxGeometry x="240" y="220" width="120" height="60" as="geometry" />
        </mxCell>
        <mxCell id="V_cOzxLmXI86towWaT79-25" style="edgeStyle=orthogonalEdgeStyle;rounded=0;orthogonalLoop=1;jettySize=auto;html=1;exitX=1;exitY=0.5;exitDx=0;exitDy=0;" edge="1" parent="1" source="V_cOzxLmXI86towWaT79-22" target="V_cOzxLmXI86towWaT79-4">
          <mxGeometry relative="1" as="geometry" />
        </mxCell>
        <mxCell id="V_cOzxLmXI86towWaT79-44" value="配置" style="edgeLabel;html=1;align=center;verticalAlign=middle;resizable=0;points=[];" vertex="1" connectable="0" parent="V_cOzxLmXI86towWaT79-25">
          <mxGeometry x="0.0742" y="1" relative="1" as="geometry">
            <mxPoint as="offset" />
          </mxGeometry>
        </mxCell>
        <mxCell id="V_cOzxLmXI86towWaT79-22" value="嫦娥&lt;br&gt;ECS运维平台" style="rounded=0;whiteSpace=wrap;html=1;verticalAlign=top;" vertex="1" parent="1">
          <mxGeometry x="220" y="-80" width="160" height="130" as="geometry" />
        </mxCell>
        <mxCell id="V_cOzxLmXI86towWaT79-23" value="Location系统" style="rounded=0;whiteSpace=wrap;html=1;" vertex="1" parent="1">
          <mxGeometry x="240" y="-30" width="120" height="60" as="geometry" />
        </mxCell>
        <mxCell id="V_cOzxLmXI86towWaT79-30" value="" style="endArrow=classic;html=1;rounded=0;entryX=1;entryY=0.5;entryDx=0;entryDy=0;" edge="1" parent="1" target="V_cOzxLmXI86towWaT79-2">
          <mxGeometry width="50" height="50" relative="1" as="geometry">
            <mxPoint x="640" y="330" as="sourcePoint" />
            <mxPoint x="720" y="290" as="targetPoint" />
          </mxGeometry>
        </mxCell>
        <mxCell id="V_cOzxLmXI86towWaT79-33" value="OpenAPI" style="edgeLabel;html=1;align=center;verticalAlign=middle;resizable=0;points=[];" vertex="1" connectable="0" parent="V_cOzxLmXI86towWaT79-30">
          <mxGeometry x="0.1983" y="2" relative="1" as="geometry">
            <mxPoint as="offset" />
          </mxGeometry>
        </mxCell>
        <mxCell id="V_cOzxLmXI86towWaT79-39" style="edgeStyle=orthogonalEdgeStyle;rounded=0;orthogonalLoop=1;jettySize=auto;html=1;exitX=0.5;exitY=0;exitDx=0;exitDy=0;entryX=0;entryY=0.5;entryDx=0;entryDy=0;strokeWidth=1;" edge="1" parent="1" source="V_cOzxLmXI86towWaT79-38" target="V_cOzxLmXI86towWaT79-15">
          <mxGeometry relative="1" as="geometry" />
        </mxCell>
        <mxCell id="V_cOzxLmXI86towWaT79-41" value="call" style="edgeLabel;html=1;align=center;verticalAlign=middle;resizable=0;points=[];" vertex="1" connectable="0" parent="V_cOzxLmXI86towWaT79-39">
          <mxGeometry x="-0.4011" y="-1" relative="1" as="geometry">
            <mxPoint as="offset" />
          </mxGeometry>
        </mxCell>
        <mxCell id="V_cOzxLmXI86towWaT79-38" value="CommonBuy" style="rounded=0;whiteSpace=wrap;html=1;" vertex="1" parent="1">
          <mxGeometry x="-150" y="500" width="120" height="60" as="geometry" />
        </mxCell>
        <mxCell id="V_cOzxLmXI86towWaT79-40" value="" style="endArrow=classic;html=1;rounded=0;strokeWidth=1;" edge="1" parent="1" target="V_cOzxLmXI86towWaT79-38">
          <mxGeometry width="50" height="50" relative="1" as="geometry">
            <mxPoint x="-90" y="620" as="sourcePoint" />
            <mxPoint x="-50" y="680" as="targetPoint" />
          </mxGeometry>
        </mxCell>
      </root>
    </mxGraphModel>
  </diagram>
</mxfile>
